%TF.GenerationSoftware,KiCad,Pcbnew,7.0.7*%
%TF.CreationDate,2023-09-21T08:57:22-06:00*%
%TF.ProjectId,magTable,6d616754-6162-46c6-952e-6b696361645f,rev?*%
%TF.SameCoordinates,Original*%
%TF.FileFunction,Copper,L1,Top*%
%TF.FilePolarity,Positive*%
%FSLAX46Y46*%
G04 Gerber Fmt 4.6, Leading zero omitted, Abs format (unit mm)*
G04 Created by KiCad (PCBNEW 7.0.7) date 2023-09-21 08:57:22*
%MOMM*%
%LPD*%
G01*
G04 APERTURE LIST*
%TA.AperFunction,ComponentPad*%
%ADD10R,2.800000X2.800000*%
%TD*%
%TA.AperFunction,ComponentPad*%
%ADD11C,1.524000*%
%TD*%
%TA.AperFunction,ViaPad*%
%ADD12C,0.800000*%
%TD*%
%TA.AperFunction,Conductor*%
%ADD13C,0.400000*%
%TD*%
%TA.AperFunction,Conductor*%
%ADD14C,0.254000*%
%TD*%
G04 APERTURE END LIST*
D10*
%TO.P,USB_CHRG\u002A\u002A,1*%
%TO.N,N/C*%
X127360000Y-90678000D03*
%TO.P,USB_CHRG\u002A\u002A,2*%
X127360000Y-104728000D03*
%TO.P,USB_CHRG\u002A\u002A,3*%
X149860000Y-90678000D03*
%TO.P,USB_CHRG\u002A\u002A,4*%
X149860000Y-104728000D03*
%TO.P,USB_CHRG\u002A\u002A,5*%
X149860000Y-94178000D03*
%TO.P,USB_CHRG\u002A\u002A,6*%
X149860000Y-101578000D03*
%TD*%
D11*
%TO.P,REF\u002A\u002A,1*%
%TO.N,N/C*%
X147320000Y-82550000D03*
%TO.P,REF\u002A\u002A,2*%
X144780000Y-82550000D03*
%TD*%
%TO.P,REF\u002A\u002A,00*%
%TO.N,N/C*%
X144780000Y-109220000D03*
%TO.P,REF\u002A\u002A,1*%
X144780000Y-86360000D03*
%TO.P,REF\u002A\u002A,2*%
X142240000Y-86360000D03*
%TO.P,REF\u002A\u002A,3*%
X139700000Y-86360000D03*
%TO.P,REF\u002A\u002A,3v*%
X132080000Y-109220000D03*
%TO.P,REF\u002A\u002A,4*%
X137160000Y-86360000D03*
%TO.P,REF\u002A\u002A,5*%
X142240000Y-109220000D03*
%TO.P,REF\u002A\u002A,5V*%
X132080000Y-86360000D03*
%TO.P,REF\u002A\u002A,6*%
X139700000Y-109220000D03*
%TO.P,REF\u002A\u002A,7*%
X137160000Y-109220000D03*
%TO.P,REF\u002A\u002A,8*%
X134620000Y-109220000D03*
%TO.P,REF\u002A\u002A,A0*%
X147320000Y-109220000D03*
%TO.P,REF\u002A\u002A,G*%
X134620000Y-86360000D03*
%TO.P,REF\u002A\u002A,RST*%
X149860000Y-109220000D03*
%TO.P,REF\u002A\u002A,RX*%
X147320000Y-86360000D03*
%TO.P,REF\u002A\u002A,TX*%
X149860000Y-86360000D03*
%TD*%
%TO.P,REF\u002A\u002A,1*%
%TO.N,N/C*%
X151130000Y-82550000D03*
%TO.P,REF\u002A\u002A,2*%
X153670000Y-82550000D03*
%TO.P,REF\u002A\u002A,3*%
X156210000Y-82550000D03*
%TD*%
%TO.P,REF\u002A\u002A,1*%
%TO.N,N/C*%
X140970000Y-82550000D03*
%TO.P,REF\u002A\u002A,2*%
X138430000Y-82550000D03*
%TO.P,REF\u002A\u002A,3*%
X135890000Y-82550000D03*
%TO.P,REF\u002A\u002A,4*%
X133350000Y-82550000D03*
%TO.P,REF\u002A\u002A,5*%
X130810000Y-82550000D03*
%TO.P,REF\u002A\u002A,6*%
X128270000Y-82550000D03*
%TO.P,REF\u002A\u002A,7*%
X125730000Y-82550000D03*
%TD*%
D12*
%TO.N,*%
X134620000Y-104648000D03*
X139954000Y-97790000D03*
%TD*%
D13*
%TO.N,*%
X151948000Y-94178000D02*
X149860000Y-94178000D01*
X152146000Y-93980000D02*
X151948000Y-94178000D01*
X152146000Y-84836000D02*
X152146000Y-93980000D01*
D14*
X152124000Y-101578000D02*
X149860000Y-101578000D01*
X152146000Y-101600000D02*
X152124000Y-101578000D01*
X153162000Y-100584000D02*
X152146000Y-101600000D01*
X153162000Y-84074000D02*
X153162000Y-100584000D01*
X147320000Y-82550000D02*
X147320000Y-84074000D01*
X147320000Y-84074000D02*
X153162000Y-84074000D01*
X140970000Y-82550000D02*
X140970000Y-100330000D01*
X138430000Y-85090000D02*
X139700000Y-86360000D01*
X135890000Y-82550000D02*
X135890000Y-85090000D01*
X125730000Y-85090000D02*
X134620000Y-93980000D01*
D13*
X144780000Y-82550000D02*
X144780000Y-84836000D01*
D14*
X125730000Y-82550000D02*
X125730000Y-85090000D01*
D13*
X144780000Y-84836000D02*
X152146000Y-84836000D01*
D14*
X140970000Y-100330000D02*
X132080000Y-109220000D01*
X138430000Y-82550000D02*
X138430000Y-85090000D01*
X128270000Y-86106000D02*
X139954000Y-97790000D01*
X135890000Y-85090000D02*
X134620000Y-86360000D01*
X134620000Y-93980000D02*
X134620000Y-104648000D01*
X128270000Y-82550000D02*
X128270000Y-86106000D01*
%TD*%
M02*
