%TF.GenerationSoftware,KiCad,Pcbnew,7.0.7*%
%TF.CreationDate,2023-09-21T08:57:22-06:00*%
%TF.ProjectId,magTable,6d616754-6162-46c6-952e-6b696361645f,rev?*%
%TF.SameCoordinates,Original*%
%TF.FileFunction,Legend,Top*%
%TF.FilePolarity,Positive*%
%FSLAX46Y46*%
G04 Gerber Fmt 4.6, Leading zero omitted, Abs format (unit mm)*
G04 Created by KiCad (PCBNEW 7.0.7) date 2023-09-21 08:57:22*
%MOMM*%
%LPD*%
G01*
G04 APERTURE LIST*
%ADD10C,0.150000*%
%ADD11C,0.100000*%
G04 APERTURE END LIST*
D10*
X144907619Y-104682819D02*
X145098095Y-104682819D01*
X145098095Y-104682819D02*
X145193333Y-104730438D01*
X145193333Y-104730438D02*
X145288571Y-104825676D01*
X145288571Y-104825676D02*
X145336190Y-105016152D01*
X145336190Y-105016152D02*
X145336190Y-105349485D01*
X145336190Y-105349485D02*
X145288571Y-105539961D01*
X145288571Y-105539961D02*
X145193333Y-105635200D01*
X145193333Y-105635200D02*
X145098095Y-105682819D01*
X145098095Y-105682819D02*
X144907619Y-105682819D01*
X144907619Y-105682819D02*
X144812381Y-105635200D01*
X144812381Y-105635200D02*
X144717143Y-105539961D01*
X144717143Y-105539961D02*
X144669524Y-105349485D01*
X144669524Y-105349485D02*
X144669524Y-105016152D01*
X144669524Y-105016152D02*
X144717143Y-104825676D01*
X144717143Y-104825676D02*
X144812381Y-104730438D01*
X144812381Y-104730438D02*
X144907619Y-104682819D01*
X146193333Y-105016152D02*
X146193333Y-105682819D01*
X145764762Y-105016152D02*
X145764762Y-105539961D01*
X145764762Y-105539961D02*
X145812381Y-105635200D01*
X145812381Y-105635200D02*
X145907619Y-105682819D01*
X145907619Y-105682819D02*
X146050476Y-105682819D01*
X146050476Y-105682819D02*
X146145714Y-105635200D01*
X146145714Y-105635200D02*
X146193333Y-105587580D01*
X146526667Y-105016152D02*
X146907619Y-105016152D01*
X146669524Y-104682819D02*
X146669524Y-105539961D01*
X146669524Y-105539961D02*
X146717143Y-105635200D01*
X146717143Y-105635200D02*
X146812381Y-105682819D01*
X146812381Y-105682819D02*
X146907619Y-105682819D01*
X147240953Y-105301866D02*
X148002858Y-105301866D01*
X127017142Y-92582819D02*
X126540952Y-92582819D01*
X126540952Y-92582819D02*
X126493333Y-93059009D01*
X126493333Y-93059009D02*
X126540952Y-93011390D01*
X126540952Y-93011390D02*
X126636190Y-92963771D01*
X126636190Y-92963771D02*
X126874285Y-92963771D01*
X126874285Y-92963771D02*
X126969523Y-93011390D01*
X126969523Y-93011390D02*
X127017142Y-93059009D01*
X127017142Y-93059009D02*
X127064761Y-93154247D01*
X127064761Y-93154247D02*
X127064761Y-93392342D01*
X127064761Y-93392342D02*
X127017142Y-93487580D01*
X127017142Y-93487580D02*
X126969523Y-93535200D01*
X126969523Y-93535200D02*
X126874285Y-93582819D01*
X126874285Y-93582819D02*
X126636190Y-93582819D01*
X126636190Y-93582819D02*
X126540952Y-93535200D01*
X126540952Y-93535200D02*
X126493333Y-93487580D01*
X127398095Y-92916152D02*
X127636190Y-93582819D01*
X127636190Y-93582819D02*
X127874285Y-92916152D01*
X126498095Y-102230438D02*
X126402857Y-102182819D01*
X126402857Y-102182819D02*
X126260000Y-102182819D01*
X126260000Y-102182819D02*
X126117143Y-102230438D01*
X126117143Y-102230438D02*
X126021905Y-102325676D01*
X126021905Y-102325676D02*
X125974286Y-102420914D01*
X125974286Y-102420914D02*
X125926667Y-102611390D01*
X125926667Y-102611390D02*
X125926667Y-102754247D01*
X125926667Y-102754247D02*
X125974286Y-102944723D01*
X125974286Y-102944723D02*
X126021905Y-103039961D01*
X126021905Y-103039961D02*
X126117143Y-103135200D01*
X126117143Y-103135200D02*
X126260000Y-103182819D01*
X126260000Y-103182819D02*
X126355238Y-103182819D01*
X126355238Y-103182819D02*
X126498095Y-103135200D01*
X126498095Y-103135200D02*
X126545714Y-103087580D01*
X126545714Y-103087580D02*
X126545714Y-102754247D01*
X126545714Y-102754247D02*
X126355238Y-102754247D01*
X126974286Y-103182819D02*
X126974286Y-102182819D01*
X126974286Y-102182819D02*
X127545714Y-103182819D01*
X127545714Y-103182819D02*
X127545714Y-102182819D01*
X128021905Y-103182819D02*
X128021905Y-102182819D01*
X128021905Y-102182819D02*
X128260000Y-102182819D01*
X128260000Y-102182819D02*
X128402857Y-102230438D01*
X128402857Y-102230438D02*
X128498095Y-102325676D01*
X128498095Y-102325676D02*
X128545714Y-102420914D01*
X128545714Y-102420914D02*
X128593333Y-102611390D01*
X128593333Y-102611390D02*
X128593333Y-102754247D01*
X128593333Y-102754247D02*
X128545714Y-102944723D01*
X128545714Y-102944723D02*
X128498095Y-103039961D01*
X128498095Y-103039961D02*
X128402857Y-103135200D01*
X128402857Y-103135200D02*
X128260000Y-103182819D01*
X128260000Y-103182819D02*
X128021905Y-103182819D01*
X146612381Y-94059009D02*
X146755238Y-94106628D01*
X146755238Y-94106628D02*
X146802857Y-94154247D01*
X146802857Y-94154247D02*
X146850476Y-94249485D01*
X146850476Y-94249485D02*
X146850476Y-94392342D01*
X146850476Y-94392342D02*
X146802857Y-94487580D01*
X146802857Y-94487580D02*
X146755238Y-94535200D01*
X146755238Y-94535200D02*
X146660000Y-94582819D01*
X146660000Y-94582819D02*
X146279048Y-94582819D01*
X146279048Y-94582819D02*
X146279048Y-93582819D01*
X146279048Y-93582819D02*
X146612381Y-93582819D01*
X146612381Y-93582819D02*
X146707619Y-93630438D01*
X146707619Y-93630438D02*
X146755238Y-93678057D01*
X146755238Y-93678057D02*
X146802857Y-93773295D01*
X146802857Y-93773295D02*
X146802857Y-93868533D01*
X146802857Y-93868533D02*
X146755238Y-93963771D01*
X146755238Y-93963771D02*
X146707619Y-94011390D01*
X146707619Y-94011390D02*
X146612381Y-94059009D01*
X146612381Y-94059009D02*
X146279048Y-94059009D01*
X147279048Y-94201866D02*
X148040953Y-94201866D01*
X147660000Y-94582819D02*
X147660000Y-93820914D01*
X129079048Y-105901866D02*
X129840953Y-105901866D01*
X146612381Y-101659009D02*
X146755238Y-101706628D01*
X146755238Y-101706628D02*
X146802857Y-101754247D01*
X146802857Y-101754247D02*
X146850476Y-101849485D01*
X146850476Y-101849485D02*
X146850476Y-101992342D01*
X146850476Y-101992342D02*
X146802857Y-102087580D01*
X146802857Y-102087580D02*
X146755238Y-102135200D01*
X146755238Y-102135200D02*
X146660000Y-102182819D01*
X146660000Y-102182819D02*
X146279048Y-102182819D01*
X146279048Y-102182819D02*
X146279048Y-101182819D01*
X146279048Y-101182819D02*
X146612381Y-101182819D01*
X146612381Y-101182819D02*
X146707619Y-101230438D01*
X146707619Y-101230438D02*
X146755238Y-101278057D01*
X146755238Y-101278057D02*
X146802857Y-101373295D01*
X146802857Y-101373295D02*
X146802857Y-101468533D01*
X146802857Y-101468533D02*
X146755238Y-101563771D01*
X146755238Y-101563771D02*
X146707619Y-101611390D01*
X146707619Y-101611390D02*
X146612381Y-101659009D01*
X146612381Y-101659009D02*
X146279048Y-101659009D01*
X147279048Y-101801866D02*
X148040953Y-101801866D01*
X128979048Y-90701866D02*
X129740953Y-90701866D01*
X129360000Y-91082819D02*
X129360000Y-90320914D01*
X144907619Y-90082819D02*
X145098095Y-90082819D01*
X145098095Y-90082819D02*
X145193333Y-90130438D01*
X145193333Y-90130438D02*
X145288571Y-90225676D01*
X145288571Y-90225676D02*
X145336190Y-90416152D01*
X145336190Y-90416152D02*
X145336190Y-90749485D01*
X145336190Y-90749485D02*
X145288571Y-90939961D01*
X145288571Y-90939961D02*
X145193333Y-91035200D01*
X145193333Y-91035200D02*
X145098095Y-91082819D01*
X145098095Y-91082819D02*
X144907619Y-91082819D01*
X144907619Y-91082819D02*
X144812381Y-91035200D01*
X144812381Y-91035200D02*
X144717143Y-90939961D01*
X144717143Y-90939961D02*
X144669524Y-90749485D01*
X144669524Y-90749485D02*
X144669524Y-90416152D01*
X144669524Y-90416152D02*
X144717143Y-90225676D01*
X144717143Y-90225676D02*
X144812381Y-90130438D01*
X144812381Y-90130438D02*
X144907619Y-90082819D01*
X146193333Y-90416152D02*
X146193333Y-91082819D01*
X145764762Y-90416152D02*
X145764762Y-90939961D01*
X145764762Y-90939961D02*
X145812381Y-91035200D01*
X145812381Y-91035200D02*
X145907619Y-91082819D01*
X145907619Y-91082819D02*
X146050476Y-91082819D01*
X146050476Y-91082819D02*
X146145714Y-91035200D01*
X146145714Y-91035200D02*
X146193333Y-90987580D01*
X146526667Y-90416152D02*
X146907619Y-90416152D01*
X146669524Y-90082819D02*
X146669524Y-90939961D01*
X146669524Y-90939961D02*
X146717143Y-91035200D01*
X146717143Y-91035200D02*
X146812381Y-91082819D01*
X146812381Y-91082819D02*
X146907619Y-91082819D01*
X147240953Y-90701866D02*
X148002858Y-90701866D01*
X147621905Y-91082819D02*
X147621905Y-90320914D01*
D11*
X144730115Y-80518533D02*
X143968211Y-80518533D01*
X144349163Y-80137580D02*
X144349163Y-80899485D01*
X147651115Y-80518533D02*
X146889211Y-80518533D01*
X149767027Y-79898419D02*
X150100360Y-80898419D01*
X150100360Y-80898419D02*
X150433693Y-79898419D01*
X151195598Y-80850800D02*
X151100360Y-80898419D01*
X151100360Y-80898419D02*
X150909884Y-80898419D01*
X150909884Y-80898419D02*
X150814646Y-80850800D01*
X150814646Y-80850800D02*
X150767027Y-80803180D01*
X150767027Y-80803180D02*
X150719408Y-80707942D01*
X150719408Y-80707942D02*
X150719408Y-80422228D01*
X150719408Y-80422228D02*
X150767027Y-80326990D01*
X150767027Y-80326990D02*
X150814646Y-80279371D01*
X150814646Y-80279371D02*
X150909884Y-80231752D01*
X150909884Y-80231752D02*
X151100360Y-80231752D01*
X151100360Y-80231752D02*
X151195598Y-80279371D01*
X152052741Y-80850800D02*
X151957503Y-80898419D01*
X151957503Y-80898419D02*
X151767027Y-80898419D01*
X151767027Y-80898419D02*
X151671789Y-80850800D01*
X151671789Y-80850800D02*
X151624170Y-80803180D01*
X151624170Y-80803180D02*
X151576551Y-80707942D01*
X151576551Y-80707942D02*
X151576551Y-80422228D01*
X151576551Y-80422228D02*
X151624170Y-80326990D01*
X151624170Y-80326990D02*
X151671789Y-80279371D01*
X151671789Y-80279371D02*
X151767027Y-80231752D01*
X151767027Y-80231752D02*
X151957503Y-80231752D01*
X151957503Y-80231752D02*
X152052741Y-80279371D01*
X153291265Y-80723800D02*
X153434122Y-80771419D01*
X153434122Y-80771419D02*
X153672217Y-80771419D01*
X153672217Y-80771419D02*
X153767455Y-80723800D01*
X153767455Y-80723800D02*
X153815074Y-80676180D01*
X153815074Y-80676180D02*
X153862693Y-80580942D01*
X153862693Y-80580942D02*
X153862693Y-80485704D01*
X153862693Y-80485704D02*
X153815074Y-80390466D01*
X153815074Y-80390466D02*
X153767455Y-80342847D01*
X153767455Y-80342847D02*
X153672217Y-80295228D01*
X153672217Y-80295228D02*
X153481741Y-80247609D01*
X153481741Y-80247609D02*
X153386503Y-80199990D01*
X153386503Y-80199990D02*
X153338884Y-80152371D01*
X153338884Y-80152371D02*
X153291265Y-80057133D01*
X153291265Y-80057133D02*
X153291265Y-79961895D01*
X153291265Y-79961895D02*
X153338884Y-79866657D01*
X153338884Y-79866657D02*
X153386503Y-79819038D01*
X153386503Y-79819038D02*
X153481741Y-79771419D01*
X153481741Y-79771419D02*
X153719836Y-79771419D01*
X153719836Y-79771419D02*
X153862693Y-79819038D01*
X154291265Y-80771419D02*
X154291265Y-80104752D01*
X154291265Y-79771419D02*
X154243646Y-79819038D01*
X154243646Y-79819038D02*
X154291265Y-79866657D01*
X154291265Y-79866657D02*
X154338884Y-79819038D01*
X154338884Y-79819038D02*
X154291265Y-79771419D01*
X154291265Y-79771419D02*
X154291265Y-79866657D01*
X155196026Y-80104752D02*
X155196026Y-80914276D01*
X155196026Y-80914276D02*
X155148407Y-81009514D01*
X155148407Y-81009514D02*
X155100788Y-81057133D01*
X155100788Y-81057133D02*
X155005550Y-81104752D01*
X155005550Y-81104752D02*
X154862693Y-81104752D01*
X154862693Y-81104752D02*
X154767455Y-81057133D01*
X155196026Y-80723800D02*
X155100788Y-80771419D01*
X155100788Y-80771419D02*
X154910312Y-80771419D01*
X154910312Y-80771419D02*
X154815074Y-80723800D01*
X154815074Y-80723800D02*
X154767455Y-80676180D01*
X154767455Y-80676180D02*
X154719836Y-80580942D01*
X154719836Y-80580942D02*
X154719836Y-80295228D01*
X154719836Y-80295228D02*
X154767455Y-80199990D01*
X154767455Y-80199990D02*
X154815074Y-80152371D01*
X154815074Y-80152371D02*
X154910312Y-80104752D01*
X154910312Y-80104752D02*
X155100788Y-80104752D01*
X155100788Y-80104752D02*
X155196026Y-80152371D01*
X155672217Y-80104752D02*
X155672217Y-80771419D01*
X155672217Y-80199990D02*
X155719836Y-80152371D01*
X155719836Y-80152371D02*
X155815074Y-80104752D01*
X155815074Y-80104752D02*
X155957931Y-80104752D01*
X155957931Y-80104752D02*
X156053169Y-80152371D01*
X156053169Y-80152371D02*
X156100788Y-80247609D01*
X156100788Y-80247609D02*
X156100788Y-80771419D01*
X157005550Y-80771419D02*
X157005550Y-80247609D01*
X157005550Y-80247609D02*
X156957931Y-80152371D01*
X156957931Y-80152371D02*
X156862693Y-80104752D01*
X156862693Y-80104752D02*
X156672217Y-80104752D01*
X156672217Y-80104752D02*
X156576979Y-80152371D01*
X157005550Y-80723800D02*
X156910312Y-80771419D01*
X156910312Y-80771419D02*
X156672217Y-80771419D01*
X156672217Y-80771419D02*
X156576979Y-80723800D01*
X156576979Y-80723800D02*
X156529360Y-80628561D01*
X156529360Y-80628561D02*
X156529360Y-80533323D01*
X156529360Y-80533323D02*
X156576979Y-80438085D01*
X156576979Y-80438085D02*
X156672217Y-80390466D01*
X156672217Y-80390466D02*
X156910312Y-80390466D01*
X156910312Y-80390466D02*
X157005550Y-80342847D01*
X157624598Y-80771419D02*
X157529360Y-80723800D01*
X157529360Y-80723800D02*
X157481741Y-80628561D01*
X157481741Y-80628561D02*
X157481741Y-79771419D01*
X126743734Y-79931200D02*
X126600877Y-79883580D01*
X126600877Y-79883580D02*
X126362782Y-79883580D01*
X126362782Y-79883580D02*
X126267544Y-79931200D01*
X126267544Y-79931200D02*
X126219925Y-79978819D01*
X126219925Y-79978819D02*
X126172306Y-80074057D01*
X126172306Y-80074057D02*
X126172306Y-80169295D01*
X126172306Y-80169295D02*
X126219925Y-80264533D01*
X126219925Y-80264533D02*
X126267544Y-80312152D01*
X126267544Y-80312152D02*
X126362782Y-80359771D01*
X126362782Y-80359771D02*
X126553258Y-80407390D01*
X126553258Y-80407390D02*
X126648496Y-80455009D01*
X126648496Y-80455009D02*
X126696115Y-80502628D01*
X126696115Y-80502628D02*
X126743734Y-80597866D01*
X126743734Y-80597866D02*
X126743734Y-80693104D01*
X126743734Y-80693104D02*
X126696115Y-80788342D01*
X126696115Y-80788342D02*
X126648496Y-80835961D01*
X126648496Y-80835961D02*
X126553258Y-80883580D01*
X126553258Y-80883580D02*
X126315163Y-80883580D01*
X126315163Y-80883580D02*
X126172306Y-80835961D01*
X125743734Y-79883580D02*
X125743734Y-80883580D01*
X125743734Y-80883580D02*
X125505639Y-80883580D01*
X125505639Y-80883580D02*
X125362782Y-80835961D01*
X125362782Y-80835961D02*
X125267544Y-80740723D01*
X125267544Y-80740723D02*
X125219925Y-80645485D01*
X125219925Y-80645485D02*
X125172306Y-80455009D01*
X125172306Y-80455009D02*
X125172306Y-80312152D01*
X125172306Y-80312152D02*
X125219925Y-80121676D01*
X125219925Y-80121676D02*
X125267544Y-80026438D01*
X125267544Y-80026438D02*
X125362782Y-79931200D01*
X125362782Y-79931200D02*
X125505639Y-79883580D01*
X125505639Y-79883580D02*
X125743734Y-79883580D01*
X124791353Y-80169295D02*
X124315163Y-80169295D01*
X124886591Y-79883580D02*
X124553258Y-80883580D01*
X124553258Y-80883580D02*
X124219925Y-79883580D01*
X134570115Y-79629580D02*
X134570115Y-80629580D01*
X134570115Y-80629580D02*
X134236782Y-79915295D01*
X134236782Y-79915295D02*
X133903449Y-80629580D01*
X133903449Y-80629580D02*
X133903449Y-79629580D01*
X133427258Y-79629580D02*
X133427258Y-80629580D01*
X132998687Y-79677200D02*
X132855830Y-79629580D01*
X132855830Y-79629580D02*
X132617735Y-79629580D01*
X132617735Y-79629580D02*
X132522497Y-79677200D01*
X132522497Y-79677200D02*
X132474878Y-79724819D01*
X132474878Y-79724819D02*
X132427259Y-79820057D01*
X132427259Y-79820057D02*
X132427259Y-79915295D01*
X132427259Y-79915295D02*
X132474878Y-80010533D01*
X132474878Y-80010533D02*
X132522497Y-80058152D01*
X132522497Y-80058152D02*
X132617735Y-80105771D01*
X132617735Y-80105771D02*
X132808211Y-80153390D01*
X132808211Y-80153390D02*
X132903449Y-80201009D01*
X132903449Y-80201009D02*
X132951068Y-80248628D01*
X132951068Y-80248628D02*
X132998687Y-80343866D01*
X132998687Y-80343866D02*
X132998687Y-80439104D01*
X132998687Y-80439104D02*
X132951068Y-80534342D01*
X132951068Y-80534342D02*
X132903449Y-80581961D01*
X132903449Y-80581961D02*
X132808211Y-80629580D01*
X132808211Y-80629580D02*
X132570116Y-80629580D01*
X132570116Y-80629580D02*
X132427259Y-80581961D01*
X131808211Y-80629580D02*
X131617735Y-80629580D01*
X131617735Y-80629580D02*
X131522497Y-80581961D01*
X131522497Y-80581961D02*
X131427259Y-80486723D01*
X131427259Y-80486723D02*
X131379640Y-80296247D01*
X131379640Y-80296247D02*
X131379640Y-79962914D01*
X131379640Y-79962914D02*
X131427259Y-79772438D01*
X131427259Y-79772438D02*
X131522497Y-79677200D01*
X131522497Y-79677200D02*
X131617735Y-79629580D01*
X131617735Y-79629580D02*
X131808211Y-79629580D01*
X131808211Y-79629580D02*
X131903449Y-79677200D01*
X131903449Y-79677200D02*
X131998687Y-79772438D01*
X131998687Y-79772438D02*
X132046306Y-79962914D01*
X132046306Y-79962914D02*
X132046306Y-80296247D01*
X132046306Y-80296247D02*
X131998687Y-80486723D01*
X131998687Y-80486723D02*
X131903449Y-80581961D01*
X131903449Y-80581961D02*
X131808211Y-80629580D01*
X142031353Y-80883580D02*
X141412306Y-80883580D01*
X141412306Y-80883580D02*
X141745639Y-80502628D01*
X141745639Y-80502628D02*
X141602782Y-80502628D01*
X141602782Y-80502628D02*
X141507544Y-80455009D01*
X141507544Y-80455009D02*
X141459925Y-80407390D01*
X141459925Y-80407390D02*
X141412306Y-80312152D01*
X141412306Y-80312152D02*
X141412306Y-80074057D01*
X141412306Y-80074057D02*
X141459925Y-79978819D01*
X141459925Y-79978819D02*
X141507544Y-79931200D01*
X141507544Y-79931200D02*
X141602782Y-79883580D01*
X141602782Y-79883580D02*
X141888496Y-79883580D01*
X141888496Y-79883580D02*
X141983734Y-79931200D01*
X141983734Y-79931200D02*
X142031353Y-79978819D01*
X140983734Y-79978819D02*
X140936115Y-79931200D01*
X140936115Y-79931200D02*
X140983734Y-79883580D01*
X140983734Y-79883580D02*
X141031353Y-79931200D01*
X141031353Y-79931200D02*
X140983734Y-79978819D01*
X140983734Y-79978819D02*
X140983734Y-79883580D01*
X140602782Y-80883580D02*
X139983735Y-80883580D01*
X139983735Y-80883580D02*
X140317068Y-80502628D01*
X140317068Y-80502628D02*
X140174211Y-80502628D01*
X140174211Y-80502628D02*
X140078973Y-80455009D01*
X140078973Y-80455009D02*
X140031354Y-80407390D01*
X140031354Y-80407390D02*
X139983735Y-80312152D01*
X139983735Y-80312152D02*
X139983735Y-80074057D01*
X139983735Y-80074057D02*
X140031354Y-79978819D01*
X140031354Y-79978819D02*
X140078973Y-79931200D01*
X140078973Y-79931200D02*
X140174211Y-79883580D01*
X140174211Y-79883580D02*
X140459925Y-79883580D01*
X140459925Y-79883580D02*
X140555163Y-79931200D01*
X140555163Y-79931200D02*
X140602782Y-79978819D01*
X139650401Y-80550247D02*
X139412306Y-79883580D01*
X139412306Y-79883580D02*
X139174211Y-80550247D01*
M02*
