M48
; DRILL file {KiCad 7.0.7} date Thu Sep 21 09:01:21 2023
; FORMAT={-:-/ absolute / inch / decimal}
; #@! TF.CreationDate,2023-09-21T09:01:21-06:00
; #@! TF.GenerationSoftware,Kicad,Pcbnew,7.0.7
; #@! TF.FileFunction,Plated,1,2,PTH
FMAT,2
INCH
; #@! TA.AperFunction,Plated,PTH,ViaDrill
T1C0.0157
; #@! TA.AperFunction,Plated,PTH,ComponentDrill
T2C0.0300
; #@! TA.AperFunction,Plated,PTH,ComponentDrill
T3C0.0400
%
G90
G05
T1
X5.3Y-4.12
X5.51Y-3.85
T2
X4.95Y-3.25
X5.05Y-3.25
X5.15Y-3.25
X5.2Y-3.4
X5.2Y-4.3
X5.25Y-3.25
X5.3Y-3.4
X5.3Y-4.3
X5.35Y-3.25
X5.4Y-3.4
X5.4Y-4.3
X5.45Y-3.25
X5.5Y-3.4
X5.5Y-4.3
X5.55Y-3.25
X5.6Y-3.4
X5.6Y-4.3
X5.7Y-3.25
X5.7Y-3.4
X5.7Y-4.3
X5.8Y-3.25
X5.8Y-3.4
X5.8Y-4.3
X5.9Y-3.4
X5.9Y-4.3
X5.95Y-3.25
X6.05Y-3.25
X6.15Y-3.25
T3
X5.0142Y-3.57
X5.0142Y-4.1231
X5.9Y-3.57
X5.9Y-3.7078
X5.9Y-3.9991
X5.9Y-4.1231
T0
M30
